<svg data-v-423bf9ae="" xmlns="http://www.w3.org/2000/svg" viewBox="0 0 309.69512273129214 60" class="font"><!----><!----><!----><g data-v-423bf9ae="" id="bbcf38c1-fd29-4ff0-931a-f838e1b6b681" fill="#064A06" transform="matrix(6.097560881055492,0,0,6.097560881055492,-6.646338351468273,-17.682926659732487)"><path d="M1.09 2.90L7.51 2.90L7.51 3.51L1.81 3.51L1.81 7.41L7.28 7.41L7.28 8.03L1.81 8.03L1.81 12.06L7.61 12.06L7.61 12.67L1.09 12.67L1.09 2.90ZM13.58 3.46L9.54 12.67L8.77 12.67L13.19 2.90L14.05 2.90L18.49 12.67L17.64 12.67L16.19 9.39L12.08 9.39L12.36 8.78L15.92 8.78L13.58 3.46ZM20.47 12.67L19.82 12.67L19.82 2.90L20.54 2.90L24.95 11.83L29.09 2.90L29.74 2.90L29.74 12.67L29.09 12.67L29.09 4.22L25.20 12.67L24.62 12.67L20.47 4.15L20.47 12.67ZM32.57 12.67L31.92 12.67L31.92 2.90L32.64 2.90L37.05 11.83L41.19 2.90L41.84 2.90L41.84 12.67L41.19 12.67L41.19 4.22L37.30 12.67L36.72 12.67L32.57 4.15L32.57 12.67ZM44.02 8.90L44.02 8.90L44.02 2.90L44.74 2.90L44.74 8.90L44.74 8.90Q44.74 12.13 47.95 12.13L47.95 12.13L47.95 12.13Q51.17 12.13 51.17 8.90L51.17 8.90L51.17 2.90L51.88 2.90L51.88 8.90L51.88 8.90Q51.88 12.74 47.95 12.74L47.95 12.74L47.95 12.74Q44.02 12.74 44.02 8.90Z"></path></g><!----><!----></svg>